# Blender v2.76 (sub 0) OBJ File: 'grassPatch.blend'
# www.blender.org
mtllib grassPatch.mtl
o Plane.012_Plane.021
v 0.211144 -0.150000 0.176738
v -0.060748 -0.150000 0.049953
v 0.211144 0.150000 0.176738
v -0.060748 0.150000 0.049953
vt 0.000100 0.057549
vt 0.999900 0.057549
vt 0.999900 0.997195
vt 0.000100 0.997195
vn 0.422600 0.000000 -0.906300
usemtl grass_Mat
s off
f 1/1/1 2/2/1 4/3/1 3/4/1
o Plane.011_Plane.020
v 0.441119 -0.150000 -0.052127
v 0.169227 -0.150000 -0.178913
v 0.441119 0.150000 -0.052127
v 0.169227 0.150000 -0.178913
vt 0.000100 0.057549
vt 0.999900 0.057549
vt 0.999900 0.997195
vt 0.000100 0.997195
vn 0.422600 0.000000 -0.906300
usemtl grass_Mat
s off
f 5/5/2 6/6/2 8/7/2 7/8/2
o Plane.010_Plane.019
v 0.441119 -0.150000 -0.174690
v 0.169227 -0.150000 -0.301476
v 0.441119 0.150000 -0.174690
v 0.169227 0.150000 -0.301476
vt 0.000100 0.057549
vt 0.999900 0.057549
vt 0.999900 0.997195
vt 0.000100 0.997195
vn 0.422600 0.000000 -0.906300
usemtl grass_Mat
s off
f 9/9/3 10/10/3 12/11/3 11/12/3
o Plane.009_Plane.018
v 0.241780 -0.150000 -0.102137
v 0.368566 -0.150000 -0.374029
v 0.241780 0.150000 -0.102137
v 0.368565 0.150000 -0.374029
vt 0.000100 0.057549
vt 0.999900 0.057549
vt 0.999900 0.997195
vt 0.000100 0.997195
vn 0.906300 0.000000 0.422600
usemtl grass_Mat
s off
f 13/13/4 14/14/4 16/15/4 15/16/4
o Plane.008_Plane.017
v -0.238601 -0.150000 -0.102137
v -0.111816 -0.150000 -0.374029
v -0.238601 0.150000 -0.102137
v -0.111816 0.150000 -0.374029
vt 0.000100 0.057549
vt 0.999900 0.057549
vt 0.999900 0.997195
vt 0.000100 0.997195
vn 0.906300 0.000000 0.422600
usemtl grass_Mat
s off
f 17/17/5 18/18/5 20/19/5 19/20/5
o Plane.007_Plane.016
v -0.039262 -0.150000 -0.174690
v -0.311154 -0.150000 -0.301476
v -0.039262 0.150000 -0.174690
v -0.311154 0.150000 -0.301476
vt 0.000100 0.057549
vt 0.999900 0.057549
vt 0.999900 0.997195
vt 0.000100 0.997195
vn 0.422600 0.000000 -0.906300
usemtl grass_Mat
s off
f 21/21/6 22/22/6 24/23/6 23/24/6
o Plane.006_Plane.015
v -0.315268 -0.150000 0.053697
v -0.035149 -0.150000 -0.053696
v -0.315268 0.150000 0.053696
v -0.035149 0.150000 -0.053697
vt 0.000100 0.057549
vt 0.999900 0.057549
vt 0.999900 0.997195
vt 0.000100 0.997195
vn 0.358000 0.000000 0.933700
usemtl grass_Mat
s off
f 25/25/7 26/26/7 28/27/7 27/28/7
o Plane.005_Plane.014
v 0.072626 -0.150000 -0.218112
v -0.151952 -0.150000 -0.019203
v 0.072626 0.150000 -0.218112
v -0.151952 0.150000 -0.019203
vt 0.000100 0.057549
vt 0.999900 0.057549
vt 0.999900 0.997195
vt 0.000100 0.997195
vn -0.663000 0.000000 -0.748600
usemtl grass_Mat
s off
f 29/29/8 30/30/8 32/31/8 31/32/8
o Plane.004_Plane.013
v 0.246437 -0.150000 -0.187952
v -0.049005 -0.150000 -0.240047
v 0.246437 0.150000 -0.187952
v -0.049005 0.150000 -0.240046
vt 0.000100 0.057549
vt 0.999900 0.057549
vt 0.999900 0.997195
vt 0.000100 0.997195
vn 0.173600 0.000000 -0.984800
usemtl grass_Mat
s off
f 33/33/9 34/34/9 36/35/9 35/36/9
o Plane.003_Plane.012
v 0.290343 -0.150000 0.122873
v 0.118270 -0.150000 -0.122873
v 0.290343 0.150000 0.122873
v 0.118270 0.150000 -0.122873
vt 0.000100 0.057549
vt 0.999900 0.057549
vt 0.999900 0.997195
vt 0.000100 0.997195
vn 0.819200 0.000000 -0.573600
usemtl grass_Mat
s off
f 37/37/10 38/38/10 40/39/10 39/40/10
o Plane.002_Plane.011
v -0.238601 -0.150000 0.135946
v -0.111816 -0.150000 -0.135946
v -0.238601 0.150000 0.135946
v -0.111816 0.150000 -0.135946
vt 0.000100 0.057549
vt 0.999900 0.057549
vt 0.999900 0.997195
vt 0.000100 0.997195
vn 0.906300 0.000000 0.422600
usemtl grass_Mat
s off
f 41/41/11 42/42/11 44/43/11 43/44/11
o Plane.001_Plane.010
v -3.000000 -0.147285 3.000000
v 3.000000 -0.147285 3.000000
v -3.000000 -0.147285 -3.000000
v 3.000000 -0.147285 -3.000000
vt -9.497999 -9.498000
vt 10.498000 -9.498000
vt 10.498000 10.498001
vt -9.498001 10.498001
vn 0.000000 1.000000 0.000000
usemtl grassGround_Mat
s off
f 45/45/12 46/46/12 48/47/12 47/48/12
o Plane_Plane.009
v -0.150000 -0.150000 0.000000
v 0.150000 -0.150000 0.000000
v -0.150000 0.150000 -0.000000
v 0.150000 0.150000 -0.000000
vt 0.000100 0.057549
vt 0.999900 0.057549
vt 0.999900 0.997195
vt 0.000100 0.997195
vn 0.000000 0.000000 1.000000
usemtl grass_Mat
s off
f 49/49/13 50/50/13 52/51/13 51/52/13
